<?xml version="1.0" encoding="UTF-8" standalone="no"?>
<!-- Created with Inkscape (http://www.inkscape.org/) -->

<svg
   xmlns:dc="http://purl.org/dc/elements/1.1/"
   xmlns:cc="http://creativecommons.org/ns#"
   xmlns:rdf="http://www.w3.org/1999/02/22-rdf-syntax-ns#"
   xmlns:svg="http://www.w3.org/2000/svg"
   xmlns="http://www.w3.org/2000/svg"
   xmlns:sodipodi="http://sodipodi.sourceforge.net/DTD/sodipodi-0.dtd"
   xmlns:inkscape="http://www.inkscape.org/namespaces/inkscape"
   width="50"
   height="50"
   id="svg2"
   version="1.1"
   inkscape:version="0.48.4 r9939"
   sodipodi:docname="New document 1">
  <defs
     id="defs4">
    <inkscape:path-effect
       effect="spiro"
       id="path-effect3792"
       is_visible="true" />
    <inkscape:path-effect
       effect="spiro"
       id="path-effect3788"
       is_visible="true" />
    <inkscape:path-effect
       effect="spiro"
       id="path-effect3784"
       is_visible="true" />
    <inkscape:path-effect
       effect="spiro"
       id="path-effect3012"
       is_visible="true" />
    <inkscape:path-effect
       effect="spiro"
       id="path-effect3004"
       is_visible="true" />
    <inkscape:path-effect
       effect="spiro"
       id="path-effect3000"
       is_visible="true" />
    <inkscape:path-effect
       effect="spiro"
       id="path-effect2996"
       is_visible="true" />
    <inkscape:path-effect
       effect="spiro"
       id="path-effect2992"
       is_visible="true" />
  </defs>
  <sodipodi:namedview
     id="base"
     pagecolor="#ffffff"
     bordercolor="#666666"
     borderopacity="1.0"
     inkscape:pageopacity="0.0"
     inkscape:pageshadow="2"
     inkscape:zoom="9.6430405"
     inkscape:cx="41.496647"
     inkscape:cy="16.598659"
     inkscape:document-units="px"
     inkscape:current-layer="layer1"
     showgrid="true"
     inkscape:window-width="1633"
     inkscape:window-height="1026"
     inkscape:window-x="47"
     inkscape:window-y="24"
     inkscape:window-maximized="1">
    <inkscape:grid
       type="xygrid"
       id="grid2985"
       empspacing="5"
       visible="true"
       enabled="true"
       snapvisiblegridlinesonly="true" />
  </sodipodi:namedview>
  <metadata
     id="metadata7">
    <rdf:RDF>
      <cc:Work
         rdf:about="">
        <dc:format>image/svg+xml</dc:format>
        <dc:type
           rdf:resource="http://purl.org/dc/dcmitype/StillImage" />
        <dc:title></dc:title>
      </cc:Work>
    </rdf:RDF>
  </metadata>
  <g
     inkscape:label="Layer 1"
     inkscape:groupmode="layer"
     id="layer1"
     transform="translate(0,-1002.3622)">
    <path
       style="color:#000000;fill:#225500;fill-opacity:1;fill-rule:nonzero;stroke:none;stroke-width:1;marker:none;visibility:visible;display:inline;overflow:visible;enable-background:accumulate"
       id="path3820"
       d="m 3.4402736,32.624024 c -0.239784,0.25058 -0.6096315,0.402371 -0.7785304,0.719473 -0.033914,0.06367 -0.047879,0.136108 -0.071819,0.204162 -0.044403,0.627921 0.2719733,1.194503 0.5743175,1.721818 0.2870355,0.429475 0.5374481,0.879162 0.6977681,1.370862 0.1013183,0.32868 0.1185841,0.672015 0.1278408,1.013233 0.027401,0.332458 -0.059272,0.611929 -0.2568853,0.874997 -0.2129257,0.244405 -0.4458783,0.470108 -0.6655165,0.708222 -0.2170925,0.230313 -0.2623353,0.5237 -0.2924012,0.82599 -0.04451,0.430036 0.1293147,0.834489 0.3262919,1.206072 0.2346265,0.358045 0.4706086,0.71352 0.6319844,1.111417 0.1084144,0.298824 0.125089,0.618246 0.1325949,0.932948 0.043337,0.397618 -0.1328024,0.696809 -0.3731103,0.99461 -0.2455765,0.257898 -0.5324094,0.468666 -0.7212634,0.774834 -0.1246032,0.258989 -0.1295281,0.549898 -0.1364216,0.831608 -0.015957,0.30123 0.00903,0.597828 0.052778,0.89534 0.052636,0.165709 0.017752,0.08853 0.1025601,0.232469 0,0 -1.5692307,0.90634 -1.5692307,0.90634 l 0,0 c -0.1060693,-0.185396 -0.060742,-0.08777 -0.1348047,-0.293417 -0.044227,-0.306435 -0.085433,-0.610921 -0.06555,-0.92173 0.00309,-0.304969 0.00574,-0.613721 0.097891,-0.907751 C 1.2759018,45.483763 1.5445582,45.246305 1.8321228,45.010919 2.0654153,44.753815 2.2945797,44.510704 2.2548801,44.138456 2.249239,43.843559 2.2462078,43.543625 2.154363,43.260185 2.0065915,42.864047 1.7708898,42.516001 1.5440341,42.161382 1.3307765,41.767227 1.1345454,41.327426 1.1559161,40.87012 1.1803234,40.546601 1.2000138,40.210261 1.4008229,39.940924 1.60628,39.689943 1.8510251,39.474688 2.0652261,39.231065 2.2852018,39.023897 2.4058821,38.788948 2.3779028,38.478587 2.3749689,38.152357 2.3670943,37.82365 2.2822072,37.506343 2.138707,37.021942 1.892718,36.583785 1.6185462,36.160982 1.2946022,35.592387 0.98287081,34.992406 0.96836442,34.322883 c 0.0154785,-0.0845 0.0190128,-0.17208 0.0464355,-0.253487 0.1166791,-0.346373 0.4829958,-0.535152 0.7489021,-0.750913 0,0 1.6765716,-0.694459 1.6765716,-0.694459 z"
       inkscape:connector-curvature="0"
       transform="translate(0,1002.3622)" />
    <path
       style="color:#000000;fill:#225500;fill-opacity:1;fill-rule:nonzero;stroke:none;stroke-width:1;marker:none;visibility:visible;display:inline;overflow:visible;enable-background:accumulate"
       id="path3822"
       d="m 6.9774294,38.251518 c -0.4777579,0.203757 -0.9807638,0.333287 -1.4312513,0.596072 2.550233,-1.426579 1.3820956,-0.995494 1.0798174,-0.443325 -0.1031684,0.188457 -0.1370421,0.39298 -0.1712058,0.601678 -0.077847,0.457593 0.023235,0.88469 0.2118341,1.299203 0.1716764,0.36367 0.4927891,0.594499 0.8124335,0.818588 0.3403489,0.174357 0.5539237,0.363077 0.6867699,0.724931 0.1270636,0.376103 0.061829,0.732267 -0.049397,1.100841 -0.1164661,0.380554 -0.2934082,0.737954 -0.4358649,1.108468 -0.1099075,0.30829 -0.1321136,0.635118 -0.1473972,0.959099 -0.00787,0.308271 -0.00621,0.616723 -0.00455,0.925067 5.524e-4,0.313122 -0.012529,0.624438 0.041456,0.93377 0.016803,0.05613 0.033605,0.112254 0.050408,0.168381 0,0 -1.5828326,0.868079 -1.5828326,0.868079 l 0,0 c -0.020163,-0.0617 -0.040326,-0.12339 -0.060489,-0.185085 -0.070312,-0.318556 -0.067062,-0.637401 -0.06124,-0.962686 -6.135e-4,-0.310735 -0.0043,-0.621502 0.00247,-0.932201 0.00897,-0.339343 0.029983,-0.682333 0.125679,-1.009899 0.1240324,-0.376643 0.3255171,-0.722783 0.4402235,-1.103535 0.1103795,-0.33176 0.2103088,-0.646323 0.098873,-0.994643 C 6.4764563,42.410329 6.2380109,42.250796 5.9569079,42.091717 5.6155872,41.844767 5.2823514,41.58167 5.0989746,41.190278 4.8973805,40.748627 4.7760775,40.290117 4.8395709,39.799863 c 0.172345,-1.353655 0.6630441,-1.241094 2.104439,-2.076815 0.4727629,-0.231403 0.9779015,-0.384543 1.4646856,-0.583475 0,0 -1.4312661,1.111945 -1.4312661,1.111945 z"
       inkscape:connector-curvature="0"
       transform="translate(0,1002.3622)" />
    <path
       style="color:#000000;fill:#225500;fill-opacity:1;fill-rule:nonzero;stroke:none;stroke-width:1;marker:none;visibility:visible;display:inline;overflow:visible;enable-background:accumulate"
       id="path3824"
       d="m 10.294315,38.621603 c -0.4278389,0.186453 -0.8764756,0.320026 -1.2981878,0.519935 3.2210698,-1.639665 1.4529428,-1.009072 1.1573558,-0.593933 -0.09971,0.14004 -0.124621,0.309446 -0.1540343,0.473576 -0.055404,0.515646 0.2435223,0.915012 0.5632683,1.282968 0.375717,0.39789 0.883444,0.592717 1.36221,0.830261 0.315477,0.167721 0.54763,0.420429 0.706321,0.736265 0.126004,0.297495 0.145909,0.623046 0.156933,0.94192 -0.0231,0.378186 -0.116452,0.750725 -0.194582,1.12122 -0.07725,0.296442 -0.130683,0.596767 -0.155674,0.901903 -0.01841,0.295169 -0.01835,0.591034 -0.01793,0.886645 -4.43e-4,0.307527 3.57e-4,0.615053 6.43e-4,0.92258 1.32e-4,0.05078 2.64e-4,0.101557 3.96e-4,0.152336 0,0 -1.612942,0.821996 -1.612942,0.821996 l 0,0 c 5.1e-5,-0.05085 1.03e-4,-0.101708 1.54e-4,-0.152563 -3.64e-4,-0.307347 -8.65e-4,-0.614698 -0.0022,-0.922043 5.03e-4,-0.299482 -0.002,-0.599192 0.01269,-0.898404 0.01919,-0.314616 0.05993,-0.625789 0.148584,-0.92946 0.08795,-0.354359 0.152987,-0.718348 0.211121,-1.077693 -0.0081,-0.293932 -0.0129,-0.59554 -0.120735,-0.873292 -0.137464,-0.282322 -0.356277,-0.496264 -0.63521,-0.642807 C 9.9265967,41.873527 9.4151488,41.644293 9.0307033,41.228008 8.6813251,40.823874 8.3604372,40.377449 8.3801504,39.817252 c 0.029573,-0.263944 0.058947,-0.664495 0.3184755,-0.818821 0.5637999,-0.335256 1.1392631,-0.650499 1.7088951,-0.975748 0.434826,-0.182202 0.882271,-0.333288 1.315614,-0.519631 0,0 -1.42882,1.118551 -1.42882,1.118551 z"
       inkscape:connector-curvature="0"
       transform="translate(0,1002.3622)" />
    <path
       style="color:#000000;fill:#225500;fill-opacity:1;fill-rule:nonzero;stroke:none;stroke-width:1;marker:none;visibility:visible;display:inline;overflow:visible;enable-background:accumulate"
       id="path3826"
       d="m 15.969271,37.845532 c -0.02172,0.676511 -0.01811,1.353578 -0.01907,2.030362 -0.01869,0.606643 0.03137,1.210043 0.08102,1.813735 0.03068,0.431845 0.184434,0.836582 0.347094,1.233113 0.202767,0.401059 0.445595,0.779409 0.642568,1.184181 0.151193,0.33789 0.248917,0.697394 0.328136,1.058171 0.07102,0.318009 0.0803,0.638181 0.02382,0.958155 -0.05116,0.277218 -0.259273,0.402558 -0.462056,0.563279 -0.264294,0.199827 -0.404294,0.482561 -0.495005,0.79293 -0.04042,0.148234 -0.01714,0.280146 0.02029,0.424229 0,0 -1.589215,0.866328 -1.589215,0.866328 l 0,0 c -0.05226,-0.169981 -0.09408,-0.3313 -0.06158,-0.511368 0.07535,-0.32683 0.186089,-0.659998 0.443019,-0.891036 0.03823,-0.03484 0.137029,-0.127224 0.180591,-0.15774 0.130873,-0.09168 0.276627,-0.130026 0.332349,-0.300155 0.08221,-0.294204 0.07455,-0.591354 0.01369,-0.890198 -0.07036,-0.348473 -0.162078,-0.696026 -0.297751,-1.024925 -0.196677,-0.408832 -0.446397,-0.787214 -0.649998,-1.191733 -0.17342,-0.412137 -0.330422,-0.836568 -0.370463,-1.28551 -0.04257,-0.611508 -0.09139,-1.222891 -0.06627,-1.83653 -9.54e-4,-0.670303 0.0029,-1.340908 -0.01907,-2.01093 0,0 1.617896,-0.824358 1.617896,-0.824358 z"
       inkscape:connector-curvature="0"
       transform="translate(0,1002.3622)" />
    <path
       style="color:#000000;fill:#225500;fill-opacity:1;fill-rule:nonzero;stroke:none;stroke-width:1;marker:none;visibility:visible;display:inline;overflow:visible;enable-background:accumulate"
       id="path3828"
       d="m 20.448209,36.687236 c -0.659065,0.306612 -2.445988,1.33807 0.257097,-0.206348 -0.47005,0.316973 -0.752149,0.825617 -0.967301,1.336536 -0.188257,0.515588 -0.216985,1.063072 -0.236237,1.605784 -0.0048,0.845794 0.531985,1.460085 1.09457,2.030897 0.590466,0.581088 1.25544,1.077539 1.879172,1.620923 0.465174,0.38581 0.647476,0.7772 0.772807,1.352764 0.0922,0.371508 0.136408,0.750204 0.159016,1.131391 0.01216,0.354406 0.02998,0.709908 0.006,1.063998 -0.01037,0.06361 -0.02074,0.127223 -0.0311,0.190834 0,0 -1.6238,0.788807 -1.6238,0.788807 l 0,0 c 0.01299,-0.05762 0.02598,-0.115233 0.03897,-0.172849 0.03372,-0.346364 0.01304,-0.695311 0.0065,-1.042755 -0.01851,-0.373581 -0.05686,-0.745701 -0.14279,-1.110599 -0.100294,-0.54666 -0.264155,-0.891889 -0.698481,-1.260011 -0.625257,-0.543717 -1.269682,-1.066877 -1.861193,-1.647984 -0.610317,-0.620349 -1.163817,-1.224315 -1.195451,-2.137885 0.01133,-0.56018 0.03301,-1.123865 0.209134,-1.66142 0.195279,-0.534599 0.480313,-1.064995 0.915755,-1.441336 0.936803,-0.543576 1.860725,-1.099106 2.833681,-1.573656 0,0 -1.416303,1.132909 -1.416303,1.132909 z"
       inkscape:connector-curvature="0"
       transform="translate(0,1002.3622)" />
    <path
       style="color:#000000;fill:#225500;fill-opacity:1;fill-rule:nonzero;stroke:none;stroke-width:1;marker:none;visibility:visible;display:inline;overflow:visible;enable-background:accumulate"
       id="path3830"
       d="m 26.650939,47.596373 c -0.389119,-0.345589 -0.769476,-0.70245 -1.095701,-1.108668 -0.330491,-0.395819 -0.418406,-0.836759 -0.534973,-1.320848 -0.128994,-0.49888 -0.234805,-1.003616 -0.313847,-1.512802 -0.05546,-0.428703 -0.07169,-0.860673 -0.0812,-1.292374 -0.0016,-0.473552 0.05515,-0.946106 0.121023,-1.414464 0.04606,-0.382989 0.197408,-0.709961 0.450585,-0.995949 0.795098,-0.585969 1.68036,-1.046465 2.568172,-1.479332 -2.793733,1.499496 -1.425406,0.989848 -1.087298,0.518151 0.115253,-0.160791 0.16366,-0.342224 0.211587,-0.530296 0.07,-0.37579 0.06783,-0.759589 0.0661,-1.140353 0.03781,-0.306473 -0.08401,-0.550735 -0.208073,-0.81734 -0.05519,-0.117425 -0.08659,-0.242419 -0.116435,-0.367904 0,0 1.59912,-0.859136 1.59912,-0.859136 l 0,0 c 0.02316,0.114232 0.04778,0.227947 0.0964,0.334807 0.130469,0.287721 0.275506,0.55916 0.239626,0.888682 -8.77e-4,0.392975 -3.5e-5,0.787547 -0.053,1.177748 -0.230568,1.223657 -0.908605,1.20094 -2.156511,1.91931 -0.577112,0.277143 -1.473331,0.8141 0.979636,-0.603119 0.106747,-0.06167 -0.211033,0.127606 -0.318669,0.187713 -0.04872,0.02721 -0.09793,0.05353 -0.146887,0.0803 -0.280224,0.233783 -0.4531,0.531204 -0.511895,0.894808 -0.07138,0.4578 -0.127532,0.920387 -0.12548,1.384256 0.0024,0.425831 0.01121,0.852477 0.06182,1.275782 0.06928,0.505483 0.177169,1.004008 0.303188,1.498265 0.114981,0.44535 0.19042,0.887715 0.495677,1.254313 0.319633,0.399939 0.693023,0.751035 1.096968,1.06547 0,0 -1.539929,0.962981 -1.539929,0.962981 z"
       inkscape:connector-curvature="0"
       transform="translate(0,1002.3622)" />
    <path
       style="color:#000000;fill:#225500;fill-opacity:1;fill-rule:nonzero;stroke:none;stroke-width:1;marker:none;visibility:visible;display:inline;overflow:visible;enable-background:accumulate"
       id="path3832"
       d="m 32.64782,35.809559 c -0.37716,0.331231 -0.804769,0.592939 -1.221741,0.868966 -0.335142,0.209811 -0.461928,0.530545 -0.523871,0.903093 -0.0658,0.404587 0.103241,0.762063 0.314399,1.094554 0.261313,0.382321 0.601895,0.695849 0.929574,1.018624 0.247173,0.240699 0.526225,0.465901 0.70743,0.764991 0.110598,0.182548 0.131713,0.276647 0.201388,0.476391 0.131644,0.469314 0.142623,0.958159 0.153343,1.441938 0.0043,0.393671 -0.0015,0.787331 -0.0021,1.181004 -0.0033,0.322666 -0.0091,0.643623 0.02843,0.964399 0.08192,0.310985 0.119521,0.634837 0.23142,0.936634 0.13427,0.40785 0.363291,0.768611 0.576807,1.137295 0.253557,0.438043 0.350426,0.934829 0.495571,1.413145 0.10946,0.32336 0.237095,0.632286 0.430594,0.913612 0,0 -1.549655,0.909048 -1.549655,0.909048 l 0,0 c -0.198,-0.299531 -0.336566,-0.620775 -0.450515,-0.961608 -0.150905,-0.462362 -0.23729,-0.947864 -0.483994,-1.374201 -0.218847,-0.376147 -0.452306,-0.744913 -0.595949,-1.158764 -0.126082,-0.313153 -0.165908,-0.648621 -0.255836,-0.973466 -0.04489,-0.328419 -0.04658,-0.655855 -0.03623,-0.987264 0.004,-0.393418 0.0068,-0.786857 0.0083,-1.180289 -0.002,-0.466784 -0.0073,-0.938918 -0.122555,-1.39424 -0.06038,-0.182544 -0.07583,-0.263855 -0.175528,-0.429364 -0.175578,-0.291486 -0.449924,-0.507225 -0.692684,-0.738454 -0.33899,-0.330469 -0.681679,-0.661089 -0.952159,-1.052582 -0.231751,-0.360012 -0.428526,-0.763697 -0.378969,-1.20385 0.04255,-0.395353 0.133946,-0.792162 0.469466,-1.044052 0.404344,-0.282782 0.843464,-0.515683 1.214764,-0.844617 0,0 1.680314,-0.680943 1.680314,-0.680943 z"
       inkscape:connector-curvature="0"
       transform="translate(0,1002.3622)" />
    <path
       style="color:#000000;fill:#225500;fill-opacity:1;fill-rule:nonzero;stroke:none;stroke-width:1;marker:none;visibility:visible;display:inline;overflow:visible;enable-background:accumulate"
       id="path3834"
       d="m 38.201066,36.642984 c -0.164709,0.518648 -0.29673,1.045881 -0.422191,1.575125 -0.09211,0.370378 -0.14295,0.747625 -0.164324,1.128089 -0.01105,0.399593 0.211495,0.733486 0.417088,1.057068 0.229729,0.363054 0.532052,0.669275 0.80894,0.994861 0.251903,0.29023 0.429503,0.608688 0.531436,0.977728 0.06909,0.306107 0.07232,0.622012 0.07361,0.934369 8.76e-4,0.306732 -0.0027,0.613442 -0.0034,0.920168 -0.0019,0.304589 -2.95e-4,0.609188 -0.0016,0.913778 -0.02618,0.351687 -0.137233,0.687539 -0.187316,1.036803 -0.05266,0.457169 -0.07462,0.916763 -0.0198,1.374101 0.01692,0.07499 0.03384,0.149971 0.05077,0.224956 0,0 -1.58194,0.85227 -1.58194,0.85227 l 0,0 c -0.0193,-0.08024 -0.0386,-0.16048 -0.05791,-0.24072 -0.06918,-0.469985 -0.05191,-0.940754 -0.0065,-1.413135 0.02168,-0.194007 0.04191,-0.388978 0.08887,-0.579005 0.01553,-0.06287 0.06998,-0.220857 0.08289,-0.285015 0.0099,-0.04895 0.01224,-0.09911 0.01836,-0.148671 -0.0011,-0.304695 6.71e-4,-0.609403 8.55e-4,-0.914097 0.0016,-0.306342 0.0026,-0.612682 0.0045,-0.919022 -0.0016,-0.298644 0.0032,-0.599986 -0.05227,-0.894725 -0.08345,-0.34688 -0.2496,-0.639861 -0.48259,-0.911247 -0.284344,-0.330246 -0.589105,-0.645621 -0.822396,-1.016176 -0.225229,-0.351745 -0.459853,-0.721786 -0.477843,-1.15163 0.01993,-0.39311 0.06381,-0.783471 0.165242,-1.165104 0.127334,-0.523911 0.255658,-1.047261 0.400363,-1.566529 0,0 1.6371,-0.78424 1.6371,-0.78424 z"
       inkscape:connector-curvature="0"
       transform="translate(0,1002.3622)" />
    <path
       style="color:#000000;fill:#225500;fill-opacity:1;fill-rule:nonzero;stroke:none;stroke-width:1;marker:none;visibility:visible;display:inline;overflow:visible;enable-background:accumulate"
       id="path3836"
       d="m 41.820848,36.115044 c 0.456439,0.292741 0.850967,0.654907 1.217542,1.051352 0.372021,0.391694 0.628941,0.875512 0.849036,1.364498 0.223956,0.509011 0.269833,1.064791 0.304076,1.612787 0.01227,0.396843 0.03671,0.795673 0.01073,1.192347 -0.07021,0.321823 -0.145295,0.641738 -0.209305,0.965101 -0.07992,0.355957 -0.118509,0.718409 -0.139743,1.081977 -0.02387,0.479115 -0.0264,0.957615 0.013,1.435685 0.05431,0.397952 0.228247,0.761524 0.350784,1.140029 0.0742,0.26128 0.153858,0.519438 0.198769,0.787715 0.03189,0.148729 0.01017,0.07922 0.06227,0.209414 0,0 -1.584725,0.886916 -1.584725,0.886916 l 0,0 c -0.06735,-0.160583 -0.04007,-0.07801 -0.08169,-0.247778 -0.03681,-0.261889 -0.113573,-0.511835 -0.181216,-0.766792 -0.116852,-0.394546 -0.291738,-0.771232 -0.358356,-1.180206 -0.04204,-0.484222 -0.04463,-0.968259 -0.0289,-1.454093 0.0132,-0.371474 0.04574,-0.74084 0.123332,-1.105235 0.0676,-0.316933 0.111168,-0.638594 0.215358,-0.947208 0.05301,-0.38817 0.01272,-0.784408 0.01594,-1.174898 -0.02426,-0.527995 -0.06234,-1.063193 -0.269687,-1.556448 -0.211564,-0.472293 -0.466157,-0.932892 -0.82102,-1.313845 -0.35556,-0.386203 -0.742906,-0.740504 -1.208498,-0.991758 0,0 1.522305,-0.98956 1.522305,-0.98956 z"
       inkscape:connector-curvature="0"
       transform="translate(0,1002.3622)" />
    <path
       style="color:#000000;fill:#225500;fill-opacity:1;fill-rule:nonzero;stroke:none;stroke-width:1;marker:none;visibility:visible;display:inline;overflow:visible;enable-background:accumulate"
       id="path3838"
       d="m 47.430229,35.907309 c 0.26357,0.813765 0.425422,1.659221 0.571082,2.50115 0.120178,0.753244 0.195406,1.512223 0.330139,2.263186 0.07558,0.399139 0.125594,0.801495 0.147412,1.206934 0.01911,0.360802 0.0222,0.716785 -0.05152,1.071192 -0.113646,0.397116 -0.201552,0.786297 -0.192472,1.201069 0.01875,0.360495 0.2076,0.618358 0.445115,0.869634 0.259036,0.246782 0.507276,0.503745 0.70089,0.805637 0.09448,0.209951 0.05719,0.102032 0.112336,0.323587 0,0 -1.595411,0.855425 -1.595411,0.855425 l 0,0 c -0.03034,-0.181475 -0.0045,-0.09196 -0.08003,-0.267801 -0.185157,-0.295223 -0.433386,-0.536635 -0.683307,-0.777196 -0.261772,-0.284507 -0.465863,-0.587908 -0.500217,-0.985998 -0.0233,-0.436177 0.03533,-0.825557 0.166043,-1.241049 0.01514,-0.06 0.0721,-0.276106 0.07868,-0.339857 0.02339,-0.226585 -0.01803,-0.459311 -0.0075,-0.686407 -0.01481,-0.401025 -0.05275,-0.800509 -0.120348,-1.196349 -0.120018,-0.757046 -0.195816,-1.519227 -0.300064,-2.278433 -0.142291,-0.826603 -0.299817,-1.663795 -0.601638,-2.448515 0,0 1.580833,-0.876209 1.580833,-0.876209 z"
       inkscape:connector-curvature="0"
       transform="translate(0,1002.3622)" />
    <path
       transform="matrix(1.0849248,0,0,1.0849248,-4.2462387,999.17757)"
       style="color:#000000;fill:#008000;fill-opacity:1;fill-rule:nonzero;stroke:none;stroke-width:1;marker:none;visibility:visible;display:inline;overflow:visible;enable-background:accumulate"
       d="m 50,26 c 0,12.702549 -2.045018,11.960815 -14.747567,11.960815 -6.253256,0 -23.505718,4.049463 -27.6516862,0 C 3.3248042,33.784404 4,32.449293 4,26 4,13.297451 14.297451,3 27,3 39.702549,3 50,13.297451 50,26 z"
       id="path2987"
       inkscape:connector-curvature="0"
       sodipodi:nodetypes="ssssss" />
    <path
       style="fill:#800000;stroke:#000000;stroke-width:1px;stroke-linecap:butt;stroke-linejoin:miter;stroke-opacity:1"
       d="m 44.068656,1037.422 c -4.350316,-0.7168 -8.740264,-1.1931 -13.143095,-1.4258 -8.439364,-0.4461 -16.925865,0 -25.2704284,1.3428 1.9799433,-1.921 4.5894194,-3.1822 7.3247624,-3.5403 1.898298,-0.2485 3.823863,-0.073 5.73773,-0.122 3.160549,-0.081 6.268997,-0.7728 9.400861,-1.2053 3.131863,-0.4325 6.383049,-0.5967 9.399361,0.3507 2.586231,0.8123 4.908696,2.4431 6.550809,4.5999"
       id="path2990"
       inkscape:path-effect="#path-effect2992"
       inkscape:original-d="m 44.068656,1037.422 c -3.971789,2.7905 -9.262534,-2.7193 -13.143095,-1.4258 -3.575918,1.1919 -22.3001714,4.3131 -25.2704284,1.3428 2.173107,-0.8807 5.1888754,-2.132 7.3247624,-3.5403 1.322298,-0.8815 4.147685,0.673 5.73773,-0.122 1.742732,-0.8714 16.829131,-1.5116 18.800222,-0.8546 2.296809,0.7656 4.808764,2.8507 6.550809,4.5999 z"
       inkscape:connector-curvature="0"
       sodipodi:nodetypes="csccssc" />
    <path
       style="fill:#800000;stroke:#000000;stroke-width:1px;stroke-linecap:butt;stroke-linejoin:miter;stroke-opacity:1"
       d="m 16,27 c -0.406773,0.3589 -0.923098,0.591917 -1.461341,0.659504 -0.538243,0.06759 -1.096149,-0.03054 -1.579028,-0.277728 -0.799348,-0.409188 -1.368972,-1.237035 -1.46549,-2.129826 -0.09652,-0.892791 0.283019,-1.823249 0.976447,-2.393819 0.544096,-0.447695 1.26709,-0.671432 1.968953,-0.609309 0.701863,0.06212 1.374318,0.409373 1.831319,0.945676 0.457,0.536304 0.693157,1.255337 0.643133,1.958166 C 16.863968,25.855493 16.528352,26.53383 16,27"
       id="path2994"
       inkscape:path-effect="#path-effect2996"
       inkscape:original-d="m 16,27 c -0.819353,-0.134259 -1.930858,0.381776 -3.040369,0.381776 -2.58231,0 -2.610875,-3.816367 -0.489043,-4.523645 C 15.359424,21.895186 19.192866,25.501809 16,27 z"
       inkscape:connector-curvature="0"
       transform="translate(0,1002.3622)" />
    <path
       style="fill:#808080;stroke:#000000;stroke-width:1px;stroke-linecap:butt;stroke-linejoin:miter;stroke-opacity:1"
       d="m 15,25 c -0.146125,0.223009 -0.343849,0.41198 -0.573241,0.547866 -0.258085,0.152883 -0.555928,0.237981 -0.855825,0.244522 -0.388348,0.0085 -0.778373,-0.116609 -1.089365,-0.349353 -0.310991,-0.232744 -0.540972,-0.571675 -0.642349,-0.946653 -0.101376,-0.374978 -0.0735,-0.783619 0.07785,-1.14136 0.151351,-0.357741 0.425221,-0.662307 0.764933,-0.850671 0.339713,-0.188363 0.74311,-0.259328 1.126711,-0.198207 0.383601,0.06112 0.744969,0.253937 1.009321,0.538549 0.264352,0.284611 0.430008,0.659208 0.462687,1.046271 C 15.313397,24.278027 15.212891,24.675096 15,25"
       id="path3002"
       inkscape:path-effect="#path-effect3004"
       inkscape:original-d="m 15,25 c -1.582441,1.066875 1.420491,-1.022653 -0.573241,0.547866 -0.233065,0.183592 -0.559134,0.244522 -0.855825,0.244522 C 10.368757,25.792388 18.027013,21.125158 15,25 z"
       inkscape:connector-curvature="0"
       transform="translate(0,1002.3622)" />
    <path
       style="fill:#1a1a1a;stroke:#000000;stroke-width:1.84664535999999990px;stroke-linecap:butt;stroke-linejoin:miter;stroke-opacity:1"
       d="m 28.763137,1027.1713 c 0.227517,0.8459 0.801858,1.5929 1.560877,2.0302 0.75902,0.4373 1.69337,0.5594 2.53927,0.3318 0.845899,-0.2275 1.592929,-0.8018 2.030191,-1.5608 0.437262,-0.7591 0.559372,-1.6934 0.331855,-2.5393 -0.227517,-0.8459 -0.801858,-1.5929 -1.560877,-2.0302 -0.75902,-0.4373 -1.69337,-0.5594 -2.53927,-0.3318 -0.845899,0.2275 -1.592929,0.8018 -2.030191,1.5608 -0.437262,0.7591 -0.559372,1.6934 -0.331855,2.5393"
       id="path3010"
       inkscape:path-effect="#path-effect3012"
       inkscape:original-d="m 28.763137,1027.1713 c -6.570407,-25.5486 20.893107,-8.9535 6.462193,-1.7381 -1.865383,0.9327 -4.363036,2.1507 -6.462193,1.7381 z"
       inkscape:connector-curvature="0" />
    <path
       style="fill:#808080;stroke:#000000;stroke-width:1px;stroke-linecap:butt;stroke-linejoin:miter;stroke-opacity:1"
       d="m 33,25 c 0.344385,-0.302715 0.562034,-0.745337 0.591499,-1.202906 0.02947,-0.457569 -0.129615,-0.92445 -0.43233,-1.268836 -0.302714,-0.344385 -0.745336,-0.562033 -1.202905,-0.591499 -0.457569,-0.02946 -0.924451,0.129615 -1.268836,0.43233 -0.344385,0.302715 -0.562034,0.745337 -0.591499,1.202906 -0.02947,0.457569 0.129615,0.92445 0.432329,1.268836 0.302715,0.344385 0.745337,0.562033 1.202906,0.591499 C 32.188733,25.461795 32.655615,25.302715 33,25"
       id="path2998"
       inkscape:path-effect="#path-effect3000"
       inkscape:original-d="M 33,25 C 30.937665,25.468972 30.687428,24.020433 30.687428,22.369089 30.687428,17.666799 43.150363,21.391282 33,25 z"
       inkscape:connector-curvature="0"
       transform="translate(0,1002.3622)" />
    <path
       style="color:#000000;fill:#800000;fill-opacity:1;fill-rule:nonzero;stroke:none;stroke-width:1;marker:none;visibility:visible;display:inline;overflow:visible;enable-background:accumulate"
       id="path3794"
       d="m 11.468084,18.587162 c 0.449267,-0.143711 0.914465,-0.216599 1.383042,-0.257415 0.495042,-0.05957 0.96995,-0.0194 1.432223,0.166745 0.407241,0.150441 0.68168,0.479647 0.873977,0.855567 0.228688,0.431421 0.371423,0.899493 0.539843,1.355792 0.119978,0.392569 0.292171,0.762772 0.469941,1.131597 0.163935,0.412934 0.387598,0.796203 0.615647,1.175905 0.223965,0.330906 0.475923,0.632708 0.77772,0.893945 0.303898,0.200059 0.563344,0.45736 0.887676,0.625102 0.188915,0.12524 0.410471,0.164929 0.620618,0.236364 0,0 -1.500114,1.019798 -1.500114,1.019798 l 0,0 c -0.221712,-0.06788 -0.439955,-0.14308 -0.637344,-0.268358 -0.319864,-0.192396 -0.596706,-0.444955 -0.899692,-0.66195 -0.312446,-0.276144 -0.578523,-0.591626 -0.805713,-0.942184 -0.23212,-0.384121 -0.455287,-0.773934 -0.625571,-1.190344 -0.177356,-0.375462 -0.367323,-0.745077 -0.475807,-1.148141 -0.161913,-0.450976 -0.299503,-0.913465 -0.534109,-1.334275 -0.173404,-0.346264 -0.42662,-0.615811 -0.801917,-0.74272 -0.448976,-0.155403 -0.909438,-0.162067 -1.37916,-0.102748 -0.466066,0.05466 -0.93073,0.134385 -1.37008,0.305872 0,0 1.42882,-1.118552 1.42882,-1.118552 z"
       inkscape:connector-curvature="0"
       transform="translate(0,1002.3622)" />
    <path
       style="color:#000000;fill:#800000;fill-opacity:1;fill-rule:nonzero;stroke:none;stroke-width:1;marker:none;visibility:visible;display:inline;overflow:visible;enable-background:accumulate"
       id="path3794-5"
       d="m 33.433492,1019.9714 c -0.449267,-0.1437 -0.914465,-0.2166 -1.383042,-0.2574 -0.495042,-0.06 -0.96995,-0.019 -1.432223,0.1667 -0.407241,0.1505 -0.68168,0.4797 -0.873977,0.8556 -0.228688,0.4314 -0.371423,0.8995 -0.539843,1.3558 -0.119978,0.3925 -0.292171,0.7627 -0.469941,1.1316 -0.163935,0.4129 -0.387598,0.7962 -0.615647,1.1759 -0.223965,0.3309 -0.475923,0.6327 -0.77772,0.8939 -0.303898,0.2001 -0.563344,0.4574 -0.887676,0.6251 -0.188915,0.1253 -0.410471,0.1649 -0.620618,0.2364 0,0 1.500114,1.0198 1.500114,1.0198 l 0,0 c 0.221712,-0.068 0.439955,-0.1431 0.637344,-0.2684 0.319864,-0.1924 0.596706,-0.4449 0.899692,-0.6619 0.312446,-0.2762 0.578523,-0.5917 0.805713,-0.9422 0.23212,-0.3841 0.455287,-0.7739 0.625571,-1.1904 0.177356,-0.3754 0.367323,-0.745 0.475807,-1.1481 0.161913,-0.451 0.299503,-0.9135 0.534109,-1.3343 0.173404,-0.3462 0.42662,-0.6158 0.801917,-0.7427 0.448976,-0.1554 0.909438,-0.1621 1.37916,-0.1027 0.466066,0.055 0.93073,0.1343 1.37008,0.3058 0,0 -1.42882,-1.1185 -1.42882,-1.1185 z"
       inkscape:connector-curvature="0" />
  </g>
</svg>
